<mxfile host="Electron" modified="2024-05-23T07:00:59.747Z" agent="Mozilla/5.0 (X11; Linux x86_64) AppleWebKit/537.36 (KHTML, like Gecko) draw.io/24.2.5 Chrome/120.0.6099.109 Electron/28.1.0 Safari/537.36" etag="kAD7Rt2ESWsZcVsL7IMw" version="24.2.5" type="device">
  <diagram name="Page-1" id="LWefU_UDVVUG9C82FY76">
    <mxGraphModel dx="1022" dy="632" grid="1" gridSize="10" guides="1" tooltips="1" connect="1" arrows="1" fold="1" page="1" pageScale="1" pageWidth="850" pageHeight="1100" math="0" shadow="0">
      <root>
        <mxCell id="0" />
        <mxCell id="1" parent="0" />
        <mxCell id="wfP47dyOC5n10IPFS-iN-8" value="" style="shape=flexArrow;endArrow=block;html=1;rounded=0;entryX=0;entryY=0.5;entryDx=0;entryDy=0;entryPerimeter=0;startArrow=block;fillColor=#f5f5f5;strokeColor=#666666;endSize=6;startSize=6;strokeWidth=1;" edge="1" parent="1" target="wfP47dyOC5n10IPFS-iN-5">
          <mxGeometry width="50" height="50" relative="1" as="geometry">
            <mxPoint x="510" y="149.58" as="sourcePoint" />
            <mxPoint x="670" y="149.58" as="targetPoint" />
          </mxGeometry>
        </mxCell>
        <mxCell id="wfP47dyOC5n10IPFS-iN-7" value="" style="shape=flexArrow;endArrow=block;html=1;rounded=0;entryX=0;entryY=0.5;entryDx=0;entryDy=0;entryPerimeter=0;startArrow=block;fillColor=#f5f5f5;strokeColor=#666666;exitX=1;exitY=0.5;exitDx=0;exitDy=0;exitPerimeter=0;" edge="1" parent="1" source="wfP47dyOC5n10IPFS-iN-12" target="wfP47dyOC5n10IPFS-iN-2">
          <mxGeometry width="50" height="50" relative="1" as="geometry">
            <mxPoint x="290" y="150" as="sourcePoint" />
            <mxPoint x="340" y="100" as="targetPoint" />
          </mxGeometry>
        </mxCell>
        <mxCell id="wfP47dyOC5n10IPFS-iN-1" value="helm-khard" style="rounded=0;whiteSpace=wrap;html=1;fillColor=#d5e8d4;strokeColor=#82b366;" vertex="1" parent="1">
          <mxGeometry x="230" y="130" width="80" height="40" as="geometry" />
        </mxCell>
        <mxCell id="wfP47dyOC5n10IPFS-iN-2" value="local&lt;div&gt;contacts&lt;/div&gt;" style="shape=cylinder3;whiteSpace=wrap;html=1;boundedLbl=1;backgroundOutline=1;size=5;fillColor=#dae8fc;strokeColor=#6c8ebf;" vertex="1" parent="1">
          <mxGeometry x="450" y="125" width="60" height="50" as="geometry" />
        </mxCell>
        <mxCell id="wfP47dyOC5n10IPFS-iN-3" value="khard" style="rounded=0;whiteSpace=wrap;html=1;fillColor=#d5e8d4;strokeColor=#82b366;" vertex="1" parent="1">
          <mxGeometry x="330" y="130" width="80" height="40" as="geometry" />
        </mxCell>
        <mxCell id="wfP47dyOC5n10IPFS-iN-4" value="vdirsyncer" style="rounded=0;whiteSpace=wrap;html=1;fillColor=#d5e8d4;strokeColor=#82b366;" vertex="1" parent="1">
          <mxGeometry x="550" y="130" width="100" height="40" as="geometry" />
        </mxCell>
        <mxCell id="wfP47dyOC5n10IPFS-iN-5" value="&lt;div&gt;remote&lt;/div&gt;&lt;div&gt;contacts&lt;/div&gt;" style="shape=cylinder3;whiteSpace=wrap;html=1;boundedLbl=1;backgroundOutline=1;size=5;fillColor=#dae8fc;strokeColor=#6c8ebf;" vertex="1" parent="1">
          <mxGeometry x="690" y="125" width="60" height="50" as="geometry" />
        </mxCell>
        <mxCell id="wfP47dyOC5n10IPFS-iN-10" value="" style="curved=1;endArrow=classic;html=1;rounded=0;entryX=0.5;entryY=0;entryDx=0;entryDy=0;exitX=0.5;exitY=0;exitDx=0;exitDy=0;dashed=1;dashPattern=1 1;" edge="1" parent="1" source="wfP47dyOC5n10IPFS-iN-1" target="wfP47dyOC5n10IPFS-iN-3">
          <mxGeometry width="50" height="50" relative="1" as="geometry">
            <mxPoint x="570" y="260" as="sourcePoint" />
            <mxPoint x="550" y="210" as="targetPoint" />
            <Array as="points">
              <mxPoint x="320" y="50" />
            </Array>
          </mxGeometry>
        </mxCell>
        <mxCell id="wfP47dyOC5n10IPFS-iN-11" value="" style="curved=1;endArrow=classic;html=1;rounded=0;entryX=0.5;entryY=0;entryDx=0;entryDy=0;exitX=0.75;exitY=0;exitDx=0;exitDy=0;dashed=1;dashPattern=1 1;" edge="1" parent="1" source="wfP47dyOC5n10IPFS-iN-1" target="wfP47dyOC5n10IPFS-iN-4">
          <mxGeometry width="50" height="50" relative="1" as="geometry">
            <mxPoint x="260" y="140" as="sourcePoint" />
            <mxPoint x="380" y="140" as="targetPoint" />
            <Array as="points">
              <mxPoint x="410" y="80" />
              <mxPoint x="570" y="80" />
            </Array>
          </mxGeometry>
        </mxCell>
        <mxCell id="wfP47dyOC5n10IPFS-iN-12" value="helm&lt;div&gt;candidates&lt;/div&gt;" style="shape=cylinder3;whiteSpace=wrap;html=1;boundedLbl=1;backgroundOutline=1;size=5;fillColor=#dae8fc;strokeColor=#6c8ebf;" vertex="1" parent="1">
          <mxGeometry x="120" y="125" width="70" height="50" as="geometry" />
        </mxCell>
        <mxCell id="wfP47dyOC5n10IPFS-iN-14" value="khard.conf" style="rounded=0;whiteSpace=wrap;html=1;fillColor=#E5FAE4;strokeColor=#82b366;dashed=1;" vertex="1" parent="1">
          <mxGeometry x="330" y="170" width="80" height="30" as="geometry" />
        </mxCell>
        <mxCell id="wfP47dyOC5n10IPFS-iN-15" value="vdirsyncer.conf" style="rounded=0;whiteSpace=wrap;html=1;fillColor=#E5FAE4;strokeColor=#82b366;dashed=1;" vertex="1" parent="1">
          <mxGeometry x="550" y="170" width="100" height="30" as="geometry" />
        </mxCell>
      </root>
    </mxGraphModel>
  </diagram>
</mxfile>
